<?xml version="1.0" encoding="utf-8"?>
<!-- Generator: Adobe Illustrator 23.0.4, SVG Export Plug-In . SVG Version: 6.00 Build 0)  -->
<svg version="1.1" id="Layer_1" xmlns="http://www.w3.org/2000/svg" xmlns:xlink="http://www.w3.org/1999/xlink" x="0px" y="0px"
	 viewBox="0 0 120 120" style="enable-background:new 0 0 120 120;" xml:space="preserve">
<style type="text/css">
	.st0{fill:#FFFFFF;}
	.st1{fill:#C2CED7;}
	.st2{fill:#02A9DE;}
	.st3{opacity:0.6;}
	.st4{clip-path:url(#SVGID_2_);}
</style>
<g>
	<circle class="st0" cx="60" cy="60" r="57.01"/>
	<path class="st1" d="M60,3.99c30.88,0,56.01,25.12,56.01,56.01S90.88,116.01,60,116.01S3.99,90.88,3.99,60S29.12,3.99,60,3.99
		 M60,1.99C27.96,1.99,1.99,27.96,1.99,60S27.96,118.01,60,118.01S118.01,92.04,118.01,60S92.04,1.99,60,1.99L60,1.99z"/>
</g>
<circle class="st2" cx="60" cy="60" r="48.56"/>
<g class="st3">
	<defs>
		<path id="SVGID_1_" class="st3" d="M56.05,62.87l12.94-12.94c1.29-1.29,3.39-1.29,4.69,0c1.29,1.29,1.29,3.39,0,4.69L60.34,67.96
			c-0.4,0.4-0.71,0.63-1.22,1.18c-0.45,0.47-0.7,0.73-1.19,1.13c-1.4,1.18-3.29,0.88-4.47-0.52l-7.35-8.4
			c-1.18-1.4-0.99-3.49,0.41-4.67c1.4-1.18,3.49-0.99,4.67,0.41L56.05,62.87z"/>
	</defs>
	<use xlink:href="#SVGID_1_"  style="overflow:visible;opacity:0.6;fill-rule:evenodd;clip-rule:evenodd;fill:#FFFFFF;"/>
	<clipPath id="SVGID_2_">
		<use xlink:href="#SVGID_1_"  style="overflow:visible;opacity:0.6;"/>
	</clipPath>
	<g class="st4">
		<defs>
			<rect id="SVGID_3_" x="-571.35" y="-195.35" width="712.13" height="877.31"/>
		</defs>
		<use xlink:href="#SVGID_3_"  style="overflow:visible;fill:#FFFFFF;"/>
		<clipPath id="SVGID_4_">
			<use xlink:href="#SVGID_3_"  style="overflow:visible;"/>
		</clipPath>
	</g>
</g>
</svg>
