<?xml version="1.0" encoding="utf-8"?>
<!-- Generator: Adobe Illustrator 27.3.1, SVG Export Plug-In . SVG Version: 6.00 Build 0)  -->
<svg version="1.1" id="Layer_1" xmlns="http://www.w3.org/2000/svg" xmlns:xlink="http://www.w3.org/1999/xlink" x="0px" y="0px"
	 viewBox="0 0 35 20" style="enable-background:new 0 0 35 20;" xml:space="preserve">
<style type="text/css">
	.st0{fill:#FFFFFF;}
</style>
<g>
</g>
<g>
	<path class="st0" d="M17.7,2.1c4,0,7.3,3.3,7.3,7.3h1.7c0-4.9-4-8.9-8.9-8.9c-3.8,0-6.5,2.2-9.2,4.3C6.3,6.8,4,8.6,1.2,8.6v1.7
		c3.4,0,6-2.1,8.4-4.2C12.1,4,14.5,2.1,17.7,2.1z"/>
	<path class="st0" d="M26,13.1c-2.5,2.1-4.9,4-8.1,4c-4,0-7.3-3.3-7.3-7.3H8.9c0,4.9,4,8.9,8.9,8.9c3.8,0,6.5-2.2,9.2-4.4
		c2.4-1.9,4.7-3.7,7.5-3.7V9C31.1,9,28.5,11.1,26,13.1z"/>
	<path class="st0" d="M15.7,7V5c-2.5,1.2-3.5,4.1-2.3,6.6s4.1,3.5,6.6,2.3s3.5-4.1,2.3-6.6c-0.5-0.9-1.3-1.7-2.4-2.2v2
		c1.4,1.2,1.5,3.3,0.4,4.6s-3.3,1.5-4.6,0.4s-1.6-3.3-0.4-4.7C15.4,7.3,15.5,7.2,15.7,7z"/>
	<rect x="17" y="3.9" class="st0" width="1.7" height="5.8"/>
</g>
</svg>
