<?xml version="1.0" encoding="utf-8"?>
<!-- Generator: Adobe Illustrator 24.3.0, SVG Export Plug-In . SVG Version: 6.00 Build 0)  -->
<svg version="1.1" id="Layer_1" xmlns="http://www.w3.org/2000/svg" xmlns:xlink="http://www.w3.org/1999/xlink" x="0px" y="0px"
	 viewBox="0 0 120 120" style="enable-background:new 0 0 120 120;" xml:space="preserve">
<style type="text/css">
	.st0{fill:#FFFFFF;}
	.st1{fill:#C2CED7;}
	.st2{fill:#79DD0C;}
	.st3{opacity:0.6;}
	.st4{opacity:0.6;fill-rule:evenodd;clip-rule:evenodd;fill:#FFFFFF;enable-background:new    ;}
	.st5{clip-path:url(#SVGID_4_);}
</style>
<g>
	<circle class="st0" cx="60" cy="60" r="57"/>
	<path class="st1" d="M60,4c30.9,0,56,25.1,56,56s-25.1,56-56,56S4,90.9,4,60S29.1,4,60,4 M60,2C28,2,2,28,2,60s26,58,58,58
		s58-26,58-58S92,2,60,2L60,2z"/>
</g>
<circle class="st2" cx="60" cy="60" r="48.6"/>
<g class="st3">
	<g>
		<path id="SVGID_1_" class="st4" d="M56,62.9l13-13c1.3-1.3,3.4-1.3,4.7,0c1.3,1.3,1.3,3.4,0,4.7L60.3,68c-0.4,0.4-0.7,0.6-1.2,1.2
			c-0.5,0.5-0.7,0.7-1.2,1.1c-1.4,1.2-3.3,0.9-4.5-0.5l-7.3-8.4c-1.2-1.4-1-3.5,0.4-4.7s3.5-1,4.7,0.4L56,62.9z"/>
	</g>
	<g>
		<g>
			<defs>
				<path id="SVGID_2_" d="M56,62.9l13-13c1.3-1.3,3.4-1.3,4.7,0c1.3,1.3,1.3,3.4,0,4.7L60.3,68c-0.4,0.4-0.7,0.6-1.2,1.2
					c-0.5,0.5-0.7,0.7-1.2,1.1c-1.4,1.2-3.3,0.9-4.5-0.5l-7.3-8.4c-1.2-1.4-1-3.5,0.4-4.7s3.5-1,4.7,0.4L56,62.9z"/>
			</defs>
			<clipPath id="SVGID_4_">
				<use xlink:href="#SVGID_2_"  style="overflow:visible;"/>
			</clipPath>
			<g class="st5">
				<g>
					<rect id="SVGID_3_" x="-571.3" y="-195.4" class="st0" width="712.1" height="877.3"/>
				</g>
			</g>
		</g>
	</g>
</g>
</svg>
