<?xml version="1.0" encoding="utf-8"?>
<!-- Generator: Adobe Illustrator 25.2.1, SVG Export Plug-In . SVG Version: 6.00 Build 0)  -->
<svg version="1.1" id="Layer_1" xmlns="http://www.w3.org/2000/svg" xmlns:xlink="http://www.w3.org/1999/xlink" x="0px" y="0px"
	 viewBox="0 0 40 40" style="enable-background:new 0 0 40 40;" xml:space="preserve">
<style type="text/css">
	.st0{fill:#79DD0C;}
	.st1{fill:#FFFFFF;}
	.st2{clip-path:url(#SVGID_2_);}
	.st3{clip-path:url(#SVGID_4_);fill:#FFFFFF;}
</style>
<circle class="st0" cx="20" cy="20" r="19.1"/>
<g>
	<path class="st0" d="M20,36.4c-9.1,0-16.4-7.4-16.4-16.4c0-9.1,7.4-16.4,16.4-16.4c9.1,0,16.4,7.4,16.4,16.4
		C36.4,29.1,29.1,36.4,20,36.4z"/>
	<path class="st1" d="M20,4.6c8.5,0,15.4,6.9,15.4,15.4S28.5,35.4,20,35.4S4.6,28.5,4.6,20S11.5,4.6,20,4.6 M20,2.6
		C10.4,2.6,2.6,10.4,2.6,20S10.4,37.4,20,37.4S37.4,29.6,37.4,20S29.6,2.6,20,2.6L20,2.6z"/>
</g>
<g>
	<defs>
		<path id="SVGID_1_" d="M17.6,21.7l7.9-7.7c0.8-0.8,2.1-0.8,2.9,0c0.8,0.7,0.8,2,0,2.7c0,0,0,0,0,0l-8.1,7.9
			c-0.2,0.2-0.5,0.6-0.8,0.7c-0.1,0.3-0.4,0.4-0.7,0.7c-0.9,0.7-2.1,0.6-2.8-0.2l-4.3-5c0,0,0,0,0,0c-0.7-0.8-0.6-2.1,0.3-2.7
			c0.9-0.7,2.1-0.6,2.8,0.2L17.6,21.7z"/>
	</defs>
	<clipPath id="SVGID_2_">
		<use xlink:href="#SVGID_1_"  style="overflow:visible;"/>
	</clipPath>
	<g class="st2">
		<defs>
			<rect id="SVGID_3_" x="-402.9" y="-184.6" width="776" height="1024"/>
		</defs>
		<clipPath id="SVGID_4_">
			<use xlink:href="#SVGID_3_"  style="overflow:visible;"/>
		</clipPath>
		<rect x="6.1" y="8.4" class="st3" width="27.8" height="23.1"/>
	</g>
</g>
</svg>
