<?xml version="1.0" encoding="utf-8"?>
<!-- Generator: Adobe Illustrator 25.2.1, SVG Export Plug-In . SVG Version: 6.00 Build 0)  -->
<svg version="1.1" id="Layer_1" xmlns="http://www.w3.org/2000/svg" xmlns:xlink="http://www.w3.org/1999/xlink" x="0px" y="0px"
	 viewBox="0 0 40 40" style="enable-background:new 0 0 40 40;" xml:space="preserve">
<style type="text/css">
	.st0{fill:#C2CED7;}
	.st1{fill:#FFFFFF;}
</style>
<circle class="st0" cx="20" cy="20" r="19.1"/>
<g>
	<path class="st1" d="M20,36.4c-9.1,0-16.4-7.4-16.4-16.4c0-9.1,7.4-16.4,16.4-16.4c9.1,0,16.4,7.4,16.4,16.4
		C36.4,29.1,29.1,36.4,20,36.4z"/>
	<path class="st1" d="M20,4.6c8.5,0,15.4,6.9,15.4,15.4S28.5,35.4,20,35.4S4.6,28.5,4.6,20S11.5,4.6,20,4.6 M20,2.6
		C10.4,2.6,2.6,10.4,2.6,20S10.4,37.4,20,37.4S37.4,29.6,37.4,20S29.6,2.6,20,2.6L20,2.6z"/>
</g>
</svg>
