<?xml version="1.0" encoding="utf-8"?>
<!-- Generator: Adobe Illustrator 23.0.4, SVG Export Plug-In . SVG Version: 6.00 Build 0)  -->
<svg version="1.1" id="Layer_1" xmlns="http://www.w3.org/2000/svg" xmlns:xlink="http://www.w3.org/1999/xlink" x="0px" y="0px"
	 viewBox="0 0 150 150" style="enable-background:new 0 0 150 150;" xml:space="preserve">
<style type="text/css">
	.st0{fill:#F2F2F2;}
</style>
<g>
	<path class="st0" d="M83.08,79.36c0-2.22-2.43-4.34-5.84-6.54v14.77C80.56,84.64,83.08,81.89,83.08,79.36z"/>
	<path class="st0" d="M65.72,107.5c0,2.13,3.19,5.57,7.04,8.95V99.65C68.76,102.88,65.72,105.65,65.72,107.5z"/>
	<path class="st0" d="M62.42,52.41c0,2.77,4.71,6.13,10.33,9.77V43.69C69.14,44.75,62.42,47.37,62.42,52.41z"/>
	<path class="st0" d="M148.54,54.83l-19.16-33.19L94.16,41.98V1.31H55.84v40.66L20.62,21.64L1.46,54.83l35.22,20.33L1.46,95.5
		l19.16,33.19l35.22-20.33v40.66h38.32v-40.66l35.22,20.33l19.16-33.19l-35.22-20.33L148.54,54.83z M86.08,126.67
		c0,0-4.03-1.36-8.83-3.7v3.7h-4.49v-6.09c-5.9-3.44-11.53-8.1-11.53-13.37c0-5.74,5.87-11,11.53-15.78V70.1
		c-7.82-4.55-17.22-9.75-17.22-17.09c0-12.58,13.47-16.17,13.47-16.17c1.42-0.04,2.65-0.04,3.74-0.01v-0.9
		c-1.34-1.14-2.25-3.24-2.25-5.67c0-3.64,2.01-6.59,4.49-6.59s4.49,2.95,4.49,6.59c0,2.43-0.91,4.53-2.25,5.67v1.35
		c4.2,0.94,2.06,3.1,0,4.52v23.27c7.16,4.62,14.22,9.57,14.22,14.29c0,5.13-7.37,11.28-14.22,16.72v24.1
		C81.85,123.8,86.08,126.67,86.08,126.67z"/>
</g>
</svg>
