<?xml version="1.0" encoding="utf-8"?>
<!-- Generator: Adobe Illustrator 27.6.1, SVG Export Plug-In . SVG Version: 6.00 Build 0)  -->
<svg version="1.1" id="Layer_1" xmlns="http://www.w3.org/2000/svg" xmlns:xlink="http://www.w3.org/1999/xlink" x="0px" y="0px"
	 viewBox="0 0 90 46" style="enable-background:new 0 0 90 46;" xml:space="preserve">
<style type="text/css">
	.st0{fill:#E2E8F0;}
	.st1{clip-path:url(#SVGID_00000019656729377263606180000001538354214714420150_);fill:#7ED321;}
</style>
<g>
	<path class="st0" d="M89,45C89,20.7,69.3,1,45,1S1,20.7,1,45h21c0-12.7,10.3-23,23-23s23,10.3,23,23H89z"/>
</g>
<g>
	<g>
		<defs>
			<path id="SVGID_1_" d="M89,45C89,20.7,69.3,1,45,1S1,20.7,1,45h21c0-12.7,10.3-23,23-23s23,10.3,23,23H89z"/>
		</defs>
		<clipPath id="SVGID_00000077308731885886560910000015323227611520414134_">
			<use xlink:href="#SVGID_1_"  style="overflow:visible;"/>
		</clipPath>
		<polygon style="clip-path:url(#SVGID_00000077308731885886560910000015323227611520414134_);fill:#7ED321;" points="45,45 0,45 
			0,0 22.5,22.5 		"/>
	</g>
</g>
<path class="st0" d="M31.6,30.5c0,0,5.5,10.7,9.8,13.7c2.4,1.6,5.8,0.8,7.5-1.7c1.8-2.6,1.3-6-1.1-7.6
	C44.3,32.3,31.6,30.5,31.6,30.5z"/>
</svg>
