<?xml version="1.0" encoding="utf-8"?>
<!-- Generator: Adobe Illustrator 23.0.4, SVG Export Plug-In . SVG Version: 6.00 Build 0)  -->
<svg version="1.1" id="Layer_1" xmlns="http://www.w3.org/2000/svg" xmlns:xlink="http://www.w3.org/1999/xlink" x="0px" y="0px"
	 viewBox="0 0 150 150" style="enable-background:new 0 0 150 150;" xml:space="preserve">
<style type="text/css">
	.st0{fill:#F2F2F2;}
</style>
<g>
	<path class="st0" d="M122.93,89.94c-0.53-0.43-1.09-0.81-1.67-1.11c-2.09-1.34-4.31-2.5-6.62-3.47c0.07,0.12,0.13,0.24,0.2,0.36
		c-3.78-1.67-6.98-2.72-9.36-3.05c-1.2-0.21-2.41-0.38-3.65-0.5c-0.18,7.96-26.51,27.48-26.51,27.48S49,90.13,48.83,82.17
		c-1.57,0.15-3.11,0.38-4.63,0.68c0,0-8.96,1.52-14.81,5.98c-12.15,7.75-20.2,21.34-20.2,36.81c0,21.74,15.89,22.81,36.69,22.81
		c2.27,0,4.6-0.01,6.97-0.01h44.97c2.37,0,4.7,0.01,6.97,0.01c20.8,0,36.69-1.07,36.69-22.81
		C141.47,110.88,134.14,97.84,122.93,89.94z"/>
	<path class="st0" d="M75.33,87.87c20.11,0,36.41-30.24,36.41-50.34c0-20.11-16.3-36.41-36.41-36.41c-20.1,0-36.4,16.3-36.4,36.41
		C38.92,57.63,55.23,87.87,75.33,87.87z"/>
</g>
</svg>
