<?xml version="1.0" encoding="utf-8"?>
<!-- Generator: Adobe Illustrator 27.6.1, SVG Export Plug-In . SVG Version: 6.00 Build 0)  -->
<svg version="1.1" id="Layer_1" xmlns="http://www.w3.org/2000/svg" xmlns:xlink="http://www.w3.org/1999/xlink" x="0px" y="0px"
	 viewBox="0 0 90 46" style="enable-background:new 0 0 90 46;" xml:space="preserve">
<style type="text/css">
	.st0{fill:#E2E8F0;}
	.st1{clip-path:url(#SVGID_00000036247877655991760740000013820963852793166720_);fill:#F7F7BA;}
</style>
<g>
	<path class="st0" d="M89,45C89,20.7,69.3,1,45,1S1,20.7,1,45h21c0-12.7,10.3-23,23-23s23,10.3,23,23H89z"/>
</g>
<g>
	<defs>
		<path id="SVGID_1_" d="M89,45C89,20.7,69.3,1,45,1S1,20.7,1,45h21c0-12.7,10.3-23,23-23s23,10.3,23,23H89z"/>
	</defs>
	<clipPath id="SVGID_00000165915127258970355220000004650479957005738144_">
		<use xlink:href="#SVGID_1_"  style="overflow:visible;"/>
	</clipPath>
	<rect style="clip-path:url(#SVGID_00000165915127258970355220000004650479957005738144_);fill:#F7F7BA;" width="45" height="46"/>
</g>
<path class="st0" d="M45,24c0,0-5.7,10.6-5.7,15.8c0,2.9,2.6,5.2,5.7,5.2s5.7-2.3,5.7-5.2C50.7,35.5,45,24,45,24z"/>
</svg>
