<?xml version="1.0" encoding="utf-8"?>
<!-- Generator: Adobe Illustrator 23.0.4, SVG Export Plug-In . SVG Version: 6.00 Build 0)  -->
<svg version="1.1" id="Layer_1" xmlns="http://www.w3.org/2000/svg" xmlns:xlink="http://www.w3.org/1999/xlink" x="0px" y="0px"
	 viewBox="0 0 300 41.03" style="enable-background:new 0 0 300 41.03;" xml:space="preserve">
<style type="text/css">
	.st0{clip-path:url(#SVGID_2_);}
	.st1{clip-path:url(#SVGID_4_);}
	.st2{clip-path:url(#SVGID_6_);fill:#FFFFFF;}
	.st3{clip-path:url(#SVGID_8_);}
	.st4{clip-path:url(#SVGID_10_);fill:#FFFFFF;}
	.st5{clip-path:url(#SVGID_12_);}
	.st6{clip-path:url(#SVGID_14_);fill:#FFFFFF;}
	.st7{clip-path:url(#SVGID_16_);}
	.st8{clip-path:url(#SVGID_18_);fill:#FFFFFF;}
	.st9{clip-path:url(#SVGID_20_);}
	.st10{clip-path:url(#SVGID_22_);fill:#FFFFFF;}
	.st11{clip-path:url(#SVGID_24_);}
	.st12{clip-path:url(#SVGID_26_);fill:#FFFFFF;}
	.st13{clip-path:url(#SVGID_28_);}
	.st14{clip-path:url(#SVGID_30_);fill:#FFFFFF;}
	.st15{clip-path:url(#SVGID_32_);}
	.st16{clip-path:url(#SVGID_34_);fill:#FFFFFF;}
	.st17{clip-path:url(#SVGID_36_);}
	.st18{clip-path:url(#SVGID_38_);fill:#FFFFFF;}
	.st19{clip-path:url(#SVGID_40_);}
	.st20{clip-path:url(#SVGID_42_);fill:#FFFFFF;}
	.st21{clip-path:url(#SVGID_44_);}
	.st22{clip-path:url(#SVGID_46_);fill:#FFFFFF;}
	.st23{clip-path:url(#SVGID_48_);}
	.st24{clip-path:url(#SVGID_50_);fill:#FFFFFF;}
</style>
<g>
	<g>
		<g>
			<defs>
				<rect id="SVGID_1_" x="2.78" y="1.65" width="294.43" height="39.38"/>
			</defs>
			<clipPath id="SVGID_2_">
				<use xlink:href="#SVGID_1_"  style="overflow:visible;"/>
			</clipPath>
			<g class="st0">
				<defs>
					<path id="SVGID_3_" d="M23.41,28.29c-1.2,8.34-4.69,10.88-8.13,10.86C8.83,39.14,4.63,31.69,4.66,21.31
						c0.03-10.33,4.63-17.8,10.9-17.78c3.22,0.01,5.88,1.5,7.31,2.77l-0.02,8.04l-0.96,0c-1.55-7.33-3.37-9.28-6.2-9.29
						c-4.18-0.01-6.77,5.78-6.8,16.27c-0.03,10.54,2.65,16.09,6.75,16.11c2.79,0.01,5.67-2.48,6.61-9.55L23.41,28.29z"/>
				</defs>
				<clipPath id="SVGID_4_">
					<use xlink:href="#SVGID_3_"  style="overflow:visible;"/>
				</clipPath>
				<g class="st1">
					<defs>
						<rect id="SVGID_5_" x="4.66" y="3.53" width="290.68" height="35.63"/>
					</defs>
					<clipPath id="SVGID_6_">
						<use xlink:href="#SVGID_5_"  style="overflow:visible;"/>
					</clipPath>
					<rect x="-4.72" y="-5.85" class="st2" width="37.51" height="54.39"/>
				</g>
			</g>
			<g class="st0">
				<defs>
					<path id="SVGID_7_" d="M36.55,3.53c6.11,0.02,11.27,7.11,11.24,17.85c-0.03,10.79-5.24,17.8-11.35,17.78
						c-6.06-0.02-11.19-7.06-11.15-17.86C25.32,10.56,30.49,3.51,36.55,3.53 M36.45,37.63c4.36,0.01,7.08-5.98,7.12-16.27
						c0.03-10.23-2.66-16.3-7.02-16.31c-4.4-0.02-7,6.03-7.03,16.26C29.49,31.6,32.04,37.62,36.45,37.63"/>
				</defs>
				<clipPath id="SVGID_8_">
					<use xlink:href="#SVGID_7_"  style="overflow:visible;"/>
				</clipPath>
				<g class="st3">
					<defs>
						<rect id="SVGID_9_" x="4.66" y="3.53" width="290.68" height="35.63"/>
					</defs>
					<clipPath id="SVGID_10_">
						<use xlink:href="#SVGID_9_"  style="overflow:visible;"/>
					</clipPath>
					<rect x="15.91" y="-5.85" class="st4" width="41.26" height="54.39"/>
				</g>
			</g>
			<g class="st0">
				<defs>
					<path id="SVGID_11_" d="M58.65,35.71l7.29,0.02c0.56,0,0.79-0.25,1.08-0.89l2.26-5.59l1.03,0l-0.73,8.03l-18.03-0.06l0-1.29
						l2.2-0.29c0.51-0.05,0.7-0.49,0.71-1.24l0.09-28.05c0-0.74-0.18-1.19-0.7-1.24l-2.19-0.31l0-1.29l9.99,0.03l0,1.29l-2.19,0.29
						c-0.51,0.05-0.7,0.49-0.71,1.24L58.65,35.71z"/>
				</defs>
				<clipPath id="SVGID_12_">
					<use xlink:href="#SVGID_11_"  style="overflow:visible;"/>
				</clipPath>
				<g class="st5">
					<defs>
						<rect id="SVGID_13_" x="4.66" y="3.53" width="290.68" height="35.63"/>
					</defs>
					<clipPath id="SVGID_14_">
						<use xlink:href="#SVGID_13_"  style="overflow:visible;"/>
					</clipPath>
					<rect x="42.17" y="-5.85" class="st6" width="37.51" height="52.51"/>
				</g>
			</g>
			<g class="st0">
				<defs>
					<path id="SVGID_15_" d="M87.8,7.01c0-0.73-0.09-1.27-0.87-1.52l-2.52-0.64l0-1.27L92.8,3.6l0,1.27L90.18,5.5
						c-0.73,0.24-0.87,0.78-0.88,1.51l-0.06,17.54c-0.03,8.36-3.34,12.74-8.98,12.73c-6.23-0.02-9.1-4.62-9.07-12.83l0.06-18.13
						c0-0.73-0.18-1.17-0.68-1.22l-2.15-0.3l0-1.27l9.81,0.03l0,1.27l-2.15,0.29c-0.5,0.05-0.69,0.44-0.69,1.22l-0.06,18.72
						c-0.02,7.04,1.75,10.22,6.01,10.23c3.94,0.01,6.38-3.35,6.4-10.68L87.8,7.01z"/>
				</defs>
				<clipPath id="SVGID_16_">
					<use xlink:href="#SVGID_15_"  style="overflow:visible;"/>
				</clipPath>
				<g class="st7">
					<defs>
						<rect id="SVGID_17_" x="4.66" y="3.53" width="290.68" height="35.63"/>
					</defs>
					<clipPath id="SVGID_18_">
						<use xlink:href="#SVGID_17_"  style="overflow:visible;"/>
					</clipPath>
					<rect x="59.05" y="-5.85" class="st8" width="43.13" height="52.51"/>
				</g>
			</g>
			<g class="st0">
				<defs>
					<path id="SVGID_19_" d="M108.55,37.28l-0.96,0l-7.9-29.41L99.6,33.66c0,0.79,0.13,1.28,0.82,1.48l2.52,0.6l0,1.28l-8.27-0.03
						l0.01-1.28l2.53-0.58c0.64-0.2,0.87-0.74,0.88-1.47l0.09-27.32c0-0.74-0.18-1.18-0.64-1.23l-2.75-0.3l0-1.28l7.95,0.02
						l6.53,24.68l6.14-24.64l7.39,0.02l0,1.28l-2.16,0.29c-0.51,0.05-0.69,0.44-0.69,1.23l-0.09,27.86c0,0.79,0.18,1.18,0.68,1.23
						l2.16,0.3l0,1.28l-9.83-0.03l0.01-1.28l2.16-0.29c0.5-0.05,0.69-0.49,0.69-1.23l0.09-26.28L108.55,37.28z"/>
				</defs>
				<clipPath id="SVGID_20_">
					<use xlink:href="#SVGID_19_"  style="overflow:visible;"/>
				</clipPath>
				<g class="st9">
					<defs>
						<rect id="SVGID_21_" x="4.66" y="3.53" width="290.68" height="35.63"/>
					</defs>
					<clipPath id="SVGID_22_">
						<use xlink:href="#SVGID_21_"  style="overflow:visible;"/>
					</clipPath>
					<rect x="85.3" y="-5.85" class="st10" width="46.88" height="52.51"/>
				</g>
			</g>
			<g class="st0">
				<defs>
					<path id="SVGID_23_" d="M124.68,37.25l0-1.29l2.1-0.29c0.49-0.05,0.67-0.49,0.67-1.24l0.09-28.06c0-0.74-0.17-1.19-0.67-1.24
						l-2.1-0.3l0-1.29l10.1,0.03c4.96,0.01,7.5,3.45,7.48,8.26c-0.01,3.82-1.99,7.04-5.92,7.82v0.1c4.96,0.46,7,4.83,6.99,8.55
						c-0.02,5.46-2.84,9.01-7.8,9L124.68,37.25z M131.48,35.73l3.08,0.01c3.35,0.01,4.52-3.06,4.54-7.37c0.01-3.97-1.14-7.99-5.34-8
						l-2.24-0.01L131.48,35.73z M131.58,5.09l-0.04,13.74l2.23,0.01c3.13,0.01,4.25-2.37,4.27-6.83c0.01-3.32-0.51-6.89-4.14-6.91
						L131.58,5.09z"/>
				</defs>
				<clipPath id="SVGID_24_">
					<use xlink:href="#SVGID_23_"  style="overflow:visible;"/>
				</clipPath>
				<g class="st11">
					<defs>
						<rect id="SVGID_25_" x="4.66" y="3.53" width="290.68" height="35.63"/>
					</defs>
					<clipPath id="SVGID_26_">
						<use xlink:href="#SVGID_25_"  style="overflow:visible;"/>
					</clipPath>
					<rect x="115.31" y="-5.85" class="st12" width="37.51" height="52.51"/>
				</g>
			</g>
			<g class="st0">
				<defs>
					<path id="SVGID_27_" d="M164.69,7.01c0-0.73-0.09-1.27-0.86-1.52l-2.52-0.64l0-1.27l8.39,0.03l0,1.27l-2.61,0.63
						c-0.73,0.24-0.87,0.78-0.88,1.51l-0.06,17.54c-0.03,8.36-3.34,12.75-8.98,12.73c-6.23-0.02-9.1-4.62-9.08-12.83l0.06-18.13
						c0-0.73-0.18-1.17-0.68-1.23l-2.15-0.3l0-1.27l9.8,0.03l0,1.27l-2.15,0.29c-0.5,0.05-0.69,0.44-0.69,1.22l-0.06,18.72
						c-0.02,7.04,1.75,10.22,6.01,10.23c3.94,0.01,6.38-3.35,6.4-10.68L164.69,7.01z"/>
				</defs>
				<clipPath id="SVGID_28_">
					<use xlink:href="#SVGID_27_"  style="overflow:visible;"/>
				</clipPath>
				<g class="st13">
					<defs>
						<rect id="SVGID_29_" x="4.66" y="3.53" width="290.68" height="35.63"/>
					</defs>
					<clipPath id="SVGID_30_">
						<use xlink:href="#SVGID_29_"  style="overflow:visible;"/>
					</clipPath>
					<rect x="135.93" y="-5.85" class="st14" width="43.13" height="52.51"/>
				</g>
			</g>
			<g class="st0">
				<defs>
					<path id="SVGID_31_" d="M170.36,36.39l-0.67-8.56l0.96,0c2.02,7.75,3.93,9.79,6.28,9.8c2.65,0.01,4.27-2.17,4.28-6.14
						c0.02-4.79-2.5-7.14-4.89-8.77c-3.21-2.25-6.03-5.06-6.01-10.3c0.02-5.04,2.9-8.9,7.16-8.88c3,0.01,4.95,1.49,6.39,2.77
						l-0.02,8.04l-0.96,0c-1.28-7.13-3.02-9.28-5.5-9.28c-2.13-0.01-3.49,2.18-3.5,5.28c-0.01,3.41,1.37,5.76,4.98,8.11
						c3.04,2.05,5.85,5.57,5.84,10.66c-0.02,6.21-3.51,10.07-7.86,10.05C173.57,39.15,171.75,37.67,170.36,36.39"/>
				</defs>
				<clipPath id="SVGID_32_">
					<use xlink:href="#SVGID_31_"  style="overflow:visible;"/>
				</clipPath>
				<g class="st15">
					<defs>
						<rect id="SVGID_33_" x="4.66" y="3.53" width="290.68" height="35.63"/>
					</defs>
					<clipPath id="SVGID_34_">
						<use xlink:href="#SVGID_33_"  style="overflow:visible;"/>
					</clipPath>
					<rect x="160.31" y="-5.85" class="st16" width="33.76" height="54.39"/>
				</g>
			</g>
			<g class="st0">
				<defs>
					<path id="SVGID_35_" d="M199.48,3.53l-2.41,8.07h17.15c1.61,0,4.41,0.13,4.41,3.5c0,3.36-3.51,3.9-5.82,3.9h-17.86l-6.52,20.17
						h8.23l3.81-12.1c0,0,9.53-0.13,11.94-0.13c2.41,0,9.63,0.27,12.14-6.32c2.51-6.59,2.81-8.34,3.01-8.87
						c0.2-0.54,1.7-8.34-5.72-8.2C214.43,3.66,199.48,3.53,199.48,3.53"/>
				</defs>
				<clipPath id="SVGID_36_">
					<use xlink:href="#SVGID_35_"  style="overflow:visible;"/>
				</clipPath>
				<g class="st17">
					<defs>
						<rect id="SVGID_37_" x="4.66" y="3.53" width="290.68" height="35.63"/>
					</defs>
					<clipPath id="SVGID_38_">
						<use xlink:href="#SVGID_37_"  style="overflow:visible;"/>
					</clipPath>
					<rect x="179.07" y="-5.85" class="st18" width="58.14" height="54.39"/>
				</g>
			</g>
			<g class="st0">
				<defs>
					<path id="SVGID_39_" d="M230.83,11.6h17.15c1.61,0,4.41,0.13,4.41,3.5c0,3.36-3.51,3.9-5.82,3.9h-17.86l-6.52,20.17h8.23
						l3.81-12.1c0,0,9.53-0.13,11.94-0.13c2.41,0,9.63,0.27,12.14-6.32c2.51-6.59,2.81-8.34,3.01-8.87c0.2-0.54,1.71-8.34-5.72-8.2
						c-7.42,0.13-22.37,0-22.37,0L230.83,11.6z"/>
				</defs>
				<clipPath id="SVGID_40_">
					<use xlink:href="#SVGID_39_"  style="overflow:visible;"/>
				</clipPath>
				<g class="st19">
					<defs>
						<rect id="SVGID_41_" x="4.66" y="3.53" width="290.68" height="35.63"/>
					</defs>
					<clipPath id="SVGID_42_">
						<use xlink:href="#SVGID_41_"  style="overflow:visible;"/>
					</clipPath>
					<rect x="212.82" y="-5.85" class="st20" width="58.14" height="54.39"/>
				</g>
			</g>
			<g class="st0">
				<defs>
					<polygon id="SVGID_43_" points="249.17,26.03 242.83,31.27 245.67,37.28 254.08,37.28 					"/>
				</defs>
				<clipPath id="SVGID_44_">
					<use xlink:href="#SVGID_43_"  style="overflow:visible;"/>
				</clipPath>
				<g class="st21">
					<defs>
						<rect id="SVGID_45_" x="4.66" y="3.53" width="290.68" height="35.63"/>
					</defs>
					<clipPath id="SVGID_46_">
						<use xlink:href="#SVGID_45_"  style="overflow:visible;"/>
					</clipPath>
					<rect x="233.45" y="16.65" class="st22" width="30.01" height="30.01"/>
				</g>
			</g>
			<g class="st0">
				<defs>
					<path id="SVGID_47_" d="M280.69,37.28h-19.65c-2.68,0-3.93-2.8-2.77-6.22l7.11-21.32c1.16-3.42,4.3-6.22,6.99-6.22h19.78
						c2.68,0,3.93,2.8,2.77,6.22l-7.23,21.32C286.52,34.48,283.37,37.28,280.69,37.28 M282.23,26.86l3.68-12.21
						c0.59-1.96-0.04-3.56-1.41-3.56h-10.07c-1.37,0-2.97,1.6-3.56,3.56l-3.62,12.21c-0.59,1.96,0.04,3.56,1.41,3.56h10.01
						C280.04,30.42,281.64,28.82,282.23,26.86"/>
				</defs>
				<clipPath id="SVGID_48_">
					<use xlink:href="#SVGID_47_"  style="overflow:visible;"/>
				</clipPath>
				<g class="st23">
					<defs>
						<rect id="SVGID_49_" x="4.66" y="3.53" width="290.68" height="35.63"/>
					</defs>
					<clipPath id="SVGID_50_">
						<use xlink:href="#SVGID_49_"  style="overflow:visible;"/>
					</clipPath>
					<rect x="248.46" y="-5.85" class="st24" width="56.26" height="52.51"/>
				</g>
			</g>
		</g>
	</g>
</g>
</svg>
