<?xml version="1.0" encoding="utf-8"?>
<!-- Generator: Adobe Illustrator 23.0.4, SVG Export Plug-In . SVG Version: 6.00 Build 0)  -->
<svg version="1.1" id="Layer_1" xmlns="http://www.w3.org/2000/svg" xmlns:xlink="http://www.w3.org/1999/xlink" x="0px" y="0px"
	 viewBox="0 0 250 30" style="enable-background:new 0 0 250 30;" xml:space="preserve">
<style type="text/css">
	.st0{clip-path:url(#SVGID_2_);}
	.st1{clip-path:url(#SVGID_4_);fill:#009FE3;}
	.st2{clip-path:url(#SVGID_6_);}
	.st3{clip-path:url(#SVGID_8_);fill:#009FE3;}
	.st4{clip-path:url(#SVGID_10_);}
	.st5{clip-path:url(#SVGID_12_);fill:#009FE3;}
	.st6{clip-path:url(#SVGID_14_);}
	.st7{clip-path:url(#SVGID_16_);fill:#009FE3;}
	.st8{clip-path:url(#SVGID_18_);}
	.st9{clip-path:url(#SVGID_20_);fill:#009FE3;}
	.st10{clip-path:url(#SVGID_22_);}
	.st11{clip-path:url(#SVGID_24_);fill:#009FE3;}
	.st12{clip-path:url(#SVGID_26_);}
	.st13{clip-path:url(#SVGID_28_);fill:#009FE3;}
	.st14{clip-path:url(#SVGID_30_);}
	.st15{clip-path:url(#SVGID_32_);fill:#009FE3;}
	.st16{clip-path:url(#SVGID_34_);}
	.st17{clip-path:url(#SVGID_36_);fill:#009FE3;}
	.st18{clip-path:url(#SVGID_38_);}
	.st19{clip-path:url(#SVGID_40_);fill:#009FE3;}
	.st20{clip-path:url(#SVGID_42_);}
	.st21{clip-path:url(#SVGID_44_);fill:#009FE3;}
	.st22{clip-path:url(#SVGID_46_);}
	.st23{clip-path:url(#SVGID_48_);fill:#009FE3;}
</style>
<g>
	<defs>
		<path id="SVGID_1_" d="M19,20.66c-1.02,6.79-4,8.85-6.94,8.84C6.56,29.48,2.97,23.42,3,14.97C3.03,6.56,6.95,0.48,12.3,0.5
			c2.75,0.01,5.01,1.22,6.24,2.26L18.52,9.3l-0.82,0c-1.32-5.97-2.87-7.55-5.29-7.56c-3.57-0.01-5.77,4.7-5.8,13.24
			c-0.03,8.58,2.26,13.1,5.76,13.11c2.38,0.01,4.84-2.01,5.64-7.77L19,20.66z"/>
	</defs>
	<clipPath id="SVGID_2_">
		<use xlink:href="#SVGID_1_"  style="overflow:visible;"/>
	</clipPath>
	<g class="st0">
		<defs>
			<rect id="SVGID_3_" x="-387" y="-217.5" width="1024" height="768"/>
		</defs>
		<clipPath id="SVGID_4_">
			<use xlink:href="#SVGID_3_"  style="overflow:visible;"/>
		</clipPath>
		<rect x="-2" y="-4.5" class="st1" width="26" height="39"/>
	</g>
</g>
<g>
	<defs>
		<path id="SVGID_5_" d="M31.01,0.5C36.43,0.52,41.03,6.29,41,15.03c-0.03,8.78-4.66,14.48-10.09,14.47
			c-5.39-0.02-9.94-5.75-9.91-14.53C21.03,6.23,25.62,0.48,31.01,0.5 M30.92,28.26c3.88,0.01,6.3-4.87,6.32-13.24
			C37.27,6.69,34.88,1.75,31,1.74c-3.91-0.01-6.22,4.91-6.24,13.24C24.73,23.35,27,28.24,30.92,28.26"/>
	</defs>
	<clipPath id="SVGID_6_">
		<use xlink:href="#SVGID_5_"  style="overflow:visible;"/>
	</clipPath>
	<g class="st2">
		<defs>
			<rect id="SVGID_7_" x="-387" y="-217.5" width="1024" height="768"/>
		</defs>
		<clipPath id="SVGID_8_">
			<use xlink:href="#SVGID_7_"  style="overflow:visible;"/>
		</clipPath>
		<rect x="16" y="-4.5" class="st3" width="30" height="39"/>
	</g>
</g>
<g>
	<defs>
		<path id="SVGID_9_" d="M48.68,27.2l5.83,0.02c0.45,0,0.64-0.2,0.86-0.74l1.81-4.64l0.82,0l-0.58,6.66L43,28.45l0-1.07l1.76-0.24
			c0.41-0.04,0.56-0.41,0.56-1.03L45.4,2.85c0-0.62-0.15-0.99-0.56-1.03l-1.75-0.25l0-1.07l7.99,0.03l0,1.07l-1.76,0.24
			c-0.41,0.04-0.56,0.41-0.56,1.02L48.68,27.2z"/>
	</defs>
	<clipPath id="SVGID_10_">
		<use xlink:href="#SVGID_9_"  style="overflow:visible;"/>
	</clipPath>
	<g class="st4">
		<defs>
			<rect id="SVGID_11_" x="-387" y="-217.5" width="1024" height="768"/>
		</defs>
		<clipPath id="SVGID_12_">
			<use xlink:href="#SVGID_11_"  style="overflow:visible;"/>
		</clipPath>
		<rect x="38" y="-4.5" class="st5" width="25" height="38"/>
	</g>
</g>
<g>
	<defs>
		<path id="SVGID_13_" d="M72.9,3.49c0-0.63-0.07-1.09-0.71-1.3l-2.07-0.55l0-1.09L77,0.57l0,1.09L74.85,2.2
			c-0.6,0.21-0.72,0.67-0.72,1.3l-0.05,15.07c-0.02,7.18-2.74,10.95-7.36,10.93c-5.11-0.02-7.47-3.97-7.44-11.02L59.33,2.9
			c0-0.63-0.15-1.01-0.56-1.05L57,1.59l0-1.09l8.04,0.03l0,1.09l-1.77,0.25c-0.41,0.04-0.57,0.38-0.57,1.05l-0.05,16.08
			c-0.02,6.05,1.44,8.78,4.93,8.79c3.23,0.01,5.23-2.88,5.25-9.18L72.9,3.49z"/>
	</defs>
	<clipPath id="SVGID_14_">
		<use xlink:href="#SVGID_13_"  style="overflow:visible;"/>
	</clipPath>
	<g class="st6">
		<defs>
			<rect id="SVGID_15_" x="-387" y="-217.5" width="1024" height="768"/>
		</defs>
		<clipPath id="SVGID_16_">
			<use xlink:href="#SVGID_15_"  style="overflow:visible;"/>
		</clipPath>
		<rect x="52" y="-4.5" class="st7" width="30" height="39"/>
	</g>
</g>
<g>
	<defs>
		<path id="SVGID_17_" d="M89.34,28.5l-0.79,0L82.1,4.11L82.03,25.5c0,0.65,0.11,1.06,0.67,1.23l2.06,0.5l0,1.06L78,28.26l0-1.06
			l2.07-0.48c0.53-0.16,0.71-0.61,0.72-1.22l0.07-22.66c0-0.61-0.15-0.98-0.52-1.02l-2.25-0.25l0-1.06l6.5,0.02l5.34,20.47
			l5.02-20.44L101,0.57l0,1.06l-1.77,0.24c-0.41,0.04-0.56,0.37-0.57,1.02L98.59,26c0,0.65,0.15,0.98,0.56,1.02l1.76,0.25l0,1.06
			l-8.04-0.02l0-1.06l1.77-0.24c0.41-0.04,0.56-0.41,0.57-1.02l0.07-21.8L89.34,28.5z"/>
	</defs>
	<clipPath id="SVGID_18_">
		<use xlink:href="#SVGID_17_"  style="overflow:visible;"/>
	</clipPath>
	<g class="st8">
		<defs>
			<rect id="SVGID_19_" x="-387" y="-217.5" width="1024" height="768"/>
		</defs>
		<clipPath id="SVGID_20_">
			<use xlink:href="#SVGID_19_"  style="overflow:visible;"/>
		</clipPath>
		<rect x="73" y="-4.5" class="st9" width="33" height="38"/>
	</g>
</g>
<g>
	<defs>
		<path id="SVGID_21_" d="M103,28.47l0-1.07l1.79-0.24c0.42-0.04,0.57-0.41,0.57-1.03l0.08-23.28c0-0.62-0.15-0.99-0.57-1.03
			l-1.79-0.25l0-1.07l8.62,0.03c4.23,0.01,6.4,2.86,6.38,6.85c-0.01,3.17-1.7,5.84-5.05,6.48v0.08c4.23,0.38,5.97,4.01,5.96,7.09
			c-0.01,4.52-2.43,7.48-6.66,7.47L103,28.47z M108.8,27.21l2.63,0.01c2.86,0.01,3.86-2.54,3.87-6.11c0.01-3.29-0.97-6.62-4.55-6.64
			l-1.91-0.01L108.8,27.21z M108.88,1.79l-0.04,11.39l1.91,0.01c2.67,0.01,3.63-1.96,3.64-5.67c0.01-2.75-0.44-5.72-3.53-5.73
			L108.88,1.79z"/>
	</defs>
	<clipPath id="SVGID_22_">
		<use xlink:href="#SVGID_21_"  style="overflow:visible;"/>
	</clipPath>
	<g class="st10">
		<defs>
			<rect id="SVGID_23_" x="-387" y="-217.5" width="1024" height="768"/>
		</defs>
		<clipPath id="SVGID_24_">
			<use xlink:href="#SVGID_23_"  style="overflow:visible;"/>
		</clipPath>
		<rect x="98" y="-4.5" class="st11" width="26" height="38"/>
	</g>
</g>
<g>
	<defs>
		<path id="SVGID_25_" d="M135.89,3.49c0-0.63-0.07-1.09-0.71-1.3l-2.07-0.55l0-1.09L140,0.57l0,1.09l-2.14,0.54
			c-0.6,0.21-0.72,0.67-0.72,1.3l-0.05,15.07c-0.02,7.18-2.74,10.95-7.36,10.93c-5.11-0.02-7.47-3.97-7.45-11.02l0.05-15.57
			c0-0.63-0.15-1.01-0.56-1.05L120,1.59l0-1.09l8.04,0.03l0,1.09l-1.77,0.25c-0.41,0.04-0.57,0.38-0.57,1.05l-0.05,16.08
			c-0.02,6.05,1.44,8.78,4.93,8.79c3.23,0.01,5.23-2.88,5.25-9.18L135.89,3.49z"/>
	</defs>
	<clipPath id="SVGID_26_">
		<use xlink:href="#SVGID_25_"  style="overflow:visible;"/>
	</clipPath>
	<g class="st12">
		<defs>
			<rect id="SVGID_27_" x="-387" y="-217.5" width="1024" height="768"/>
		</defs>
		<clipPath id="SVGID_28_">
			<use xlink:href="#SVGID_27_"  style="overflow:visible;"/>
		</clipPath>
		<rect x="115" y="-4.5" class="st13" width="30" height="39"/>
	</g>
</g>
<g>
	<defs>
		<path id="SVGID_29_" d="M142.58,27.25L142,20.28l0.83,0c1.75,6.3,3.4,7.97,5.44,7.97c2.3,0.01,3.7-1.77,3.71-5
			c0.01-3.9-2.17-5.81-4.24-7.14c-2.78-1.83-5.23-4.12-5.21-8.39c0.01-4.1,2.51-7.24,6.2-7.23c2.6,0.01,4.29,1.22,5.53,2.26
			l-0.02,6.55l-0.83,0c-1.11-5.8-2.61-7.55-4.76-7.56c-1.85-0.01-3.02,1.77-3.03,4.3c-0.01,2.78,1.19,4.69,4.31,6.6
			c2.63,1.67,5.07,4.53,5.06,8.68c-0.02,5.05-3.04,8.19-6.81,8.18C145.36,29.49,143.78,28.29,142.58,27.25"/>
	</defs>
	<clipPath id="SVGID_30_">
		<use xlink:href="#SVGID_29_"  style="overflow:visible;"/>
	</clipPath>
	<g class="st14">
		<defs>
			<rect id="SVGID_31_" x="-387" y="-217.5" width="1024" height="768"/>
		</defs>
		<clipPath id="SVGID_32_">
			<use xlink:href="#SVGID_31_"  style="overflow:visible;"/>
		</clipPath>
		<rect x="137" y="-4.5" class="st15" width="23" height="39"/>
	</g>
</g>
<g>
	<defs>
		<path id="SVGID_33_" d="M167.44,1.5l-2.06,6.34h14.67c1.37,0,3.77,0.11,3.77,2.75c0,2.64-3,3.06-4.98,3.06h-15.27L158,29.5h7.03
			l3.26-9.51c0,0,8.15-0.11,10.21-0.11c2.06,0,8.24,0.21,10.38-4.97c2.14-5.18,2.4-6.55,2.57-6.97c0.17-0.43,1.46-6.55-4.89-6.45
			C180.22,1.61,167.44,1.5,167.44,1.5"/>
	</defs>
	<clipPath id="SVGID_34_">
		<use xlink:href="#SVGID_33_"  style="overflow:visible;"/>
	</clipPath>
	<g class="st16">
		<defs>
			<rect id="SVGID_35_" x="-387" y="-217.5" width="1024" height="768"/>
		</defs>
		<clipPath id="SVGID_36_">
			<use xlink:href="#SVGID_35_"  style="overflow:visible;"/>
		</clipPath>
		<rect x="153" y="-3.5" class="st17" width="43.68" height="38"/>
	</g>
</g>
<g>
	<defs>
		<path id="SVGID_37_" d="M195.1,1.5l-2.06,6.34h14.67c1.37,0,3.77,0.11,3.77,2.75c0,2.64-3,3.06-4.97,3.06h-15.27l-5.58,15.85h7.03
			l3.26-9.51c0,0,8.15-0.11,10.21-0.11c2.06,0,8.24,0.21,10.38-4.97c2.14-5.18,2.4-6.55,2.57-6.97c0.17-0.43,1.46-6.55-4.89-6.45
			C207.88,1.61,195.1,1.5,195.1,1.5"/>
	</defs>
	<clipPath id="SVGID_38_">
		<use xlink:href="#SVGID_37_"  style="overflow:visible;"/>
	</clipPath>
	<g class="st18">
		<defs>
			<rect id="SVGID_39_" x="-387" y="-217.5" width="1024" height="768"/>
		</defs>
		<clipPath id="SVGID_40_">
			<use xlink:href="#SVGID_39_"  style="overflow:visible;"/>
		</clipPath>
		<rect x="180.66" y="-3.5" class="st19" width="43.68" height="38"/>
	</g>
</g>
<g>
	<defs>
		<polygon id="SVGID_41_" points="207.92,19.76 202.5,24.3 204.93,29.5 212.12,29.5 		"/>
	</defs>
	<clipPath id="SVGID_42_">
		<use xlink:href="#SVGID_41_"  style="overflow:visible;"/>
	</clipPath>
	<g class="st20">
		<defs>
			<rect id="SVGID_43_" x="-387" y="-217.5" width="1024" height="768"/>
		</defs>
		<clipPath id="SVGID_44_">
			<use xlink:href="#SVGID_43_"  style="overflow:visible;"/>
		</clipPath>
		<rect x="197.5" y="14.76" class="st21" width="19.62" height="19.74"/>
	</g>
</g>
<g>
	<defs>
		<path id="SVGID_45_" d="M234.79,29.5H218.4c-2.24,0-3.27-2.32-2.31-5.16l5.93-17.68c0.97-2.84,3.59-5.16,5.82-5.16h16.49
			c2.24,0,3.27,2.32,2.31,5.16l-6.03,17.68C239.64,27.18,237.02,29.5,234.79,29.5 M236.07,20.86l3.07-10.12
			c0.49-1.62-0.04-2.95-1.17-2.95h-8.4c-1.14,0-2.47,1.33-2.97,2.95l-3.02,10.12c-0.49,1.62,0.04,2.95,1.17,2.95h8.35
			C234.25,23.81,235.58,22.48,236.07,20.86"/>
	</defs>
	<clipPath id="SVGID_46_">
		<use xlink:href="#SVGID_45_"  style="overflow:visible;"/>
	</clipPath>
	<g class="st22">
		<defs>
			<rect id="SVGID_47_" x="-387" y="-217.5" width="1024" height="768"/>
		</defs>
		<clipPath id="SVGID_48_">
			<use xlink:href="#SVGID_47_"  style="overflow:visible;"/>
		</clipPath>
		<rect x="210.73" y="-3.5" class="st23" width="41.27" height="38"/>
	</g>
</g>
</svg>
