<?xml version="1.0" encoding="utf-8"?>
<!-- Generator: Adobe Illustrator 23.0.4, SVG Export Plug-In . SVG Version: 6.00 Build 0)  -->
<svg version="1.1" id="Layer_1" xmlns="http://www.w3.org/2000/svg" xmlns:xlink="http://www.w3.org/1999/xlink" x="0px" y="0px"
	 viewBox="0 0 205 205" style="enable-background:new 0 0 205 205;" xml:space="preserve">
<style type="text/css">
	.st0{fill:#FFCA1D;}
</style>
<g>
	<path class="st0" d="M102.7,14.3L129,67.4l1.2,2.4l2.6,0.4l58.6,8.5L148.9,120l-1.9,1.8l0.4,2.6l10,58.4l-52.4-27.6l-2.3-1.2
		l-2.3,1.2L48,182.9l10-58.4l0.4-2.6l-1.9-1.8L14.1,78.7l58.6-8.5l2.6-0.4l1.2-2.4L102.7,14.3 M102.7,3L72,65.2l-68.7,10L53,123.6
		L41.3,192l61.4-32.3l61.4,32.3l-11.7-68.4l49.7-48.4l-68.7-10L102.7,3L102.7,3z"/>
</g>
</svg>
