<?xml version="1.0" encoding="utf-8"?>
<!-- Generator: Adobe Illustrator 23.0.4, SVG Export Plug-In . SVG Version: 6.00 Build 0)  -->
<svg version="1.1" id="Layer_1" xmlns="http://www.w3.org/2000/svg" xmlns:xlink="http://www.w3.org/1999/xlink" x="0px" y="0px"
	 viewBox="0 0 205 205" style="enable-background:new 0 0 205 205;" xml:space="preserve">
<style type="text/css">
	.st0{fill:#FFCA1D;}
	.st1{fill:#DDAF4A;}
</style>
<g>
	<polygon class="st0" points="102.7,159.1 42,191.1 53.6,123.4 4.4,75.5 72.4,65.7 102.7,4.1 133.1,65.7 201,75.5 151.9,123.4 
		163.5,191.1 	"/>
	<path class="st1" d="M102.7,5.2l29.8,60.4l0.2,0.5l0.5,0.1l66.7,9.7l-48.2,47l-0.4,0.4l0.1,0.5l11.4,66.4l-59.6-31.3l-0.5-0.2
		l-0.5,0.2l-59.6,31.3L54,123.8l0.1-0.5l-0.4-0.4l-48.2-47l66.7-9.7l0.5-0.1l0.2-0.5L102.7,5.2 M102.7,3L72,65.2l-68.7,10L53,123.6
		L41.3,192l61.4-32.3l61.4,32.3l-11.7-68.4l49.7-48.4l-68.7-10L102.7,3L102.7,3z"/>
</g>
</svg>
